<svg width="20" height="20" viewBox="0 0 20 20" fill="none" xmlns="http://www.w3.org/2000/svg">
                                    <path d="M17.0178 10.3086C17.7428 10.6002 18.1928 11.4586 18.0261 12.2169L17.6844 13.7669C17.0928 16.4336 15.0011 18.3336 11.9844 18.3336H8.01775C5.00108 18.3336 2.90942 16.4336 2.31775 13.7669L1.97608 12.2169C1.80942 11.4586 2.25941 10.6002 2.98441 10.3086L4.16776 9.83355L8.75943 7.99189C9.55943 7.67523 10.4427 7.67523 11.2427 7.99189L15.8344 9.83355L17.0178 10.3086Z" stroke="#515D66" stroke-width="1.3" stroke-linecap="round" stroke-linejoin="round"></path>
                                    <path d="M10 18.3335V8.3335" stroke="#515D66" stroke-width="1.3" stroke-linecap="round" stroke-linejoin="round"></path>
                                    <path d="M15.8346 6.6665V9.83316L11.243 7.9915C10.443 7.67483 9.55964 7.67483 8.75964 7.9915L4.16797 9.83316V6.6665C4.16797 5.2915 5.29297 4.1665 6.66797 4.1665H13.3346C14.7096 4.1665 15.8346 5.2915 15.8346 6.6665Z" stroke="#515D66" stroke-width="1.3" stroke-linecap="round" stroke-linejoin="round"></path>
                                    <path d="M12.0846 4.1665H7.91797V2.49984C7.91797 2.0415 8.29297 1.6665 8.7513 1.6665H11.2513C11.7096 1.6665 12.0846 2.0415 12.0846 2.49984V4.1665Z" stroke="#515D66" stroke-width="1.3" stroke-linecap="round" stroke-linejoin="round"></path>
                                  </svg>