<svg xmlns="http://www.w3.org/2000/svg" width="40" height="40" viewBox="0 0 40 40" fill="none">
<g clip-path="url(#clip0_12320_997)">
<path d="M36.6663 10H31.8974C32.6348 9.02 33.0725 7.80242 33.0725 6.48438C33.0725 3.25352 30.444 0.625 27.2131 0.625C25.267 0.625 23.8319 1.32227 22.6968 2.8193C21.7472 4.0718 21.0528 5.82055 20.1819 8.03008C19.3109 5.82047 18.6166 4.0718 17.667 2.8193C16.5319 1.32227 15.0968 0.625 13.1506 0.625C9.91978 0.625 7.29126 3.25352 7.29126 6.48438C7.29126 7.80242 7.72899 9.02 8.46634 10H3.69751C1.75899 10 0.181885 11.5771 0.181885 13.5156V15.8594C0.181885 17.3871 1.16165 18.6897 2.52563 19.1734V37.1094C2.52563 39.0479 4.10274 40.625 6.04126 40.625H34.3225C36.261 40.625 37.8381 39.0479 37.8381 37.1094V19.1734C39.2021 18.6897 40.1819 17.3871 40.1819 15.8594V13.5156C40.1819 11.5771 38.6048 10 36.6663 10ZM22.333 8.96406C24.1282 4.40953 24.8107 2.96875 27.2131 2.96875C29.1517 2.96875 30.7288 4.54586 30.7288 6.48438C30.7288 8.42289 29.1517 10 27.2131 10H21.9231C22.0666 9.63945 22.2036 9.29234 22.333 8.96406ZM13.1506 2.96875C15.5531 2.96875 16.2356 4.40953 18.0308 8.96406C18.1602 9.29234 18.2971 9.63945 18.4407 10H13.1506C11.2121 10 9.63501 8.42289 9.63501 6.48438C9.63501 4.54586 11.2121 2.96875 13.1506 2.96875ZM15.4944 38.2812H6.04126C5.39509 38.2812 4.86938 37.7555 4.86938 37.1094V19.375H15.4944V38.2812ZM15.4944 17.0312H3.69751C3.05134 17.0312 2.52563 16.5055 2.52563 15.8594V13.5156C2.52563 12.8695 3.05134 12.3438 3.69751 12.3438H15.4944V17.0312ZM22.5256 38.2812H17.8381V12.3438C18.0837 12.3438 21.1788 12.3438 22.5256 12.3438V38.2812ZM35.4944 37.1094C35.4944 37.7555 34.9687 38.2812 34.3225 38.2812H24.8694V19.375H35.4944V37.1094ZM37.8381 15.8594C37.8381 16.5055 37.3124 17.0312 36.6663 17.0312H24.8694V12.3438H36.6663C37.3124 12.3438 37.8381 12.8695 37.8381 13.5156V15.8594Z" fill="#0e0e0e"></path>
</g>
<defs>
<clipPath id="clip0_12320_997">
<rect width="40" height="40" fill="white" transform="translate(0.181885 0.625)"></rect>
</clipPath>
</defs>
</svg>