<svg xmlns="http://www.w3.org/2000/svg" width="20" height="20" viewBox="0 0 20 20" fill="none">
                                <path d="M16.249 15.5304L15.8319 14.8339C15.0817 13.5971 14.0465 12.1776 12.6885 12.1776C12.437 12.1776 12.1878 12.2282 11.9412 12.3307L11.2123 12.6432C11.1458 12.6708 11.0811 12.7022 11.0126 12.7355C10.8261 12.8262 10.6146 12.929 10.397 12.929C9.86027 12.929 9.23841 12.2305 8.64621 10.9623C8.06503 9.71762 8.1021 9.06508 8.23551 8.73673C8.38273 8.37447 8.72505 8.21959 9.09282 8.08041C9.14396 8.06101 9.19015 8.04342 9.23507 8.02493L9.97312 7.71418C11.8959 6.9101 11.1806 4.10014 10.9461 3.17889L10.7472 2.3868C10.5771 1.734 10.1263 0 8.63088 0C8.35404 0 8.05871 0.064496 7.75337 0.191774C7.55303 0.271334 4.79603 1.39672 3.79719 3.37382C2.60343 5.72716 2.82416 8.88296 4.45262 12.7515C6.0689 16.625 8.16479 18.9942 10.6821 19.7933C11.1139 19.9305 11.6019 19.9999 12.1327 19.9999H12.133C13.8702 19.9999 15.5851 19.2608 15.7243 19.1994C16.3232 18.9457 16.7104 18.5601 16.8749 18.0532C17.1538 17.1937 16.6859 16.2519 16.249 15.5304ZM15.5878 17.6356C15.5495 17.7534 15.4166 17.8609 15.1929 17.9551C15.1892 17.9567 15.1847 17.9586 15.1809 17.9603C15.1654 17.9672 13.6131 18.647 12.1326 18.6469C11.7409 18.6469 11.3907 18.5988 11.0916 18.5037C8.97077 17.8305 7.1573 15.72 5.70041 12.2286C4.2327 8.7416 3.99817 5.96837 5.00431 3.98495C5.78557 2.43858 8.23146 1.45761 8.25545 1.44823C8.26032 1.44625 8.2651 1.44435 8.26988 1.44237C8.40916 1.38391 8.534 1.35306 8.63088 1.35306C8.92901 1.35306 9.20034 1.81545 9.43613 2.72173L9.63413 3.51048C10.0613 5.18828 9.9963 6.23772 9.44939 6.46647L8.71486 6.77587C8.68563 6.78796 8.65145 6.80068 8.61374 6.81502C8.208 6.96864 7.36369 7.28814 6.98186 8.22735C6.63538 9.0796 6.77881 10.1615 7.41989 11.535C8.28332 13.3835 9.25708 14.2821 10.3968 14.2821C10.9258 14.2821 11.3504 14.0757 11.604 13.9525C11.6507 13.9298 11.6925 13.909 11.7374 13.8904L12.4674 13.5774C12.5427 13.546 12.615 13.5307 12.6884 13.5307C13.0398 13.5307 13.6698 13.8786 14.673 15.5325L15.0899 16.2285C15.6036 17.0767 15.6442 17.4618 15.5878 17.6356Z" fill="#FFFFFF "></path>
                              </svg>