<svg xmlns="http://www.w3.org/2000/svg" width="40" height="40" viewBox="0 0 40 40" fill="none">
<g clip-path="url(#clip0_12320_867)">
<path d="M39.2 20.0003C39.2 30.5871 30.5868 39.2003 20 39.2003C9.41325 39.2003 0.800049 30.5871 0.800049 20.0003C0.800049 19.3371 1.33685 18.8003 2.00005 18.8003C2.66325 18.8003 3.20005 19.3371 3.20005 20.0003C3.20005 29.2639 10.7364 36.8003 20 36.8003C29.2636 36.8003 36.8 29.2639 36.8 20.0003C36.8 10.7367 29.2636 3.20029 20 3.20029C15.5348 3.20029 11.3896 4.93589 8.27125 8.00029H12.8C13.4632 8.00029 14 8.53709 14 9.20029C14 9.86349 13.4632 10.4003 12.8 10.4003H5.60005C4.93685 10.4003 4.40005 9.86349 4.40005 9.20029V2.00029C4.40005 1.33709 4.93685 0.800293 5.60005 0.800293C6.26325 0.800293 6.80005 1.33709 6.80005 2.00029V6.09389C10.3404 2.71469 14.9924 0.800293 20 0.800293C30.5868 0.800293 39.2 9.41349 39.2 20.0003ZM30.8 15.2003V26.0003C30.8 26.5007 30.4896 26.9483 30.022 27.1243L20.422 30.7243C20.286 30.7747 20.1428 30.8003 20 30.8003C19.8572 30.8003 19.714 30.7747 19.578 30.7243L9.97805 27.1243C9.51045 26.9483 9.20005 26.5007 9.20005 26.0003V15.2003C9.20005 14.6999 9.51045 14.2523 9.97805 14.0763L19.578 10.4763C19.85 10.3755 20.15 10.3755 20.4216 10.4763L30.0216 14.0763C30.4896 14.2523 30.8 14.6999 30.8 15.2003ZM13.8172 15.2003L20 17.5183L26.1828 15.2003L20 12.8823L13.8172 15.2003ZM11.6 25.1683L18.8 27.8683V19.6323L11.6 16.9323V25.1683ZM28.4 25.1683V16.9323L21.2 19.6323V27.8683L28.4 25.1683Z" fill="#0e0e0e"></path>
</g>
<defs>
<clipPath id="clip0_12320_867">
<rect width="40" height="40" fill="#0e0e0e"></rect>
</clipPath>
</defs>
</svg>