<svg width="20" height="20" viewBox="0 0 20 20" fill="none" xmlns="http://www.w3.org/2000/svg">
                                    <path d="M14.1328 5.1416C15.7995 6.29993 16.9495 8.1416 17.1828 10.2666" stroke="#515D66" stroke-width="1.3" stroke-linecap="round" stroke-linejoin="round"></path>
                                    <path d="M2.91016 10.3081C3.12682 8.19144 4.26016 6.34977 5.91016 5.18311" stroke="#515D66" stroke-width="1.3" stroke-linecap="round" stroke-linejoin="round"></path>
                                    <path d="M6.82422 17.4502C7.79089 17.9419 8.89089 18.2169 10.0492 18.2169C11.1659 18.2169 12.2159 17.9669 13.1576 17.5085" stroke="#515D66" stroke-width="1.3" stroke-linecap="round" stroke-linejoin="round"></path>
                                    <path d="M10.051 6.41654C11.3305 6.41654 12.3677 5.37933 12.3677 4.09987C12.3677 2.82041 11.3305 1.7832 10.051 1.7832C8.77158 1.7832 7.73438 2.82041 7.73438 4.09987C7.73438 5.37933 8.77158 6.41654 10.051 6.41654Z" stroke="#515D66" stroke-width="1.3" stroke-linecap="round" stroke-linejoin="round"></path>
                                    <path d="M4.0237 16.6001C5.30316 16.6001 6.34036 15.5629 6.34036 14.2835C6.34036 13.004 5.30316 11.9668 4.0237 11.9668C2.74424 11.9668 1.70703 13.004 1.70703 14.2835C1.70703 15.5629 2.74424 16.6001 4.0237 16.6001Z" stroke="#515D66" stroke-width="1.3" stroke-linecap="round" stroke-linejoin="round"></path>
                                    <path d="M15.9768 16.6001C17.2563 16.6001 18.2935 15.5629 18.2935 14.2835C18.2935 13.004 17.2563 11.9668 15.9768 11.9668C14.6974 11.9668 13.6602 13.004 13.6602 14.2835C13.6602 15.5629 14.6974 16.6001 15.9768 16.6001Z" stroke="#515D66" stroke-width="1.3" stroke-linecap="round" stroke-linejoin="round"></path>
                                  </svg>