<svg xmlns="http://www.w3.org/2000/svg" width="24" height="24" viewBox="0 0 24 24" fill="none">
                    <g clip-path="url(#clip0_11518_1140)">
                      <path d="M9.74062 0C15.1116 0 19.4812 4.36964 19.4812 9.74063C19.4812 12.1734 18.5847 14.4008 17.1047 16.1097L23.7941 22.7997C24.0687 23.0743 24.0686 23.5195 23.794 23.7941C23.5194 24.0687 23.0743 24.0686 22.7997 23.7941L16.1104 17.1041C14.4014 18.5845 12.1738 19.4813 9.74062 19.4813C4.36964 19.4813 0 15.1116 0 9.74063C0 4.36964 4.36964 0 9.74062 0ZM9.74062 18.075C14.3362 18.075 18.075 14.3362 18.075 9.74063C18.075 5.14505 14.3362 1.40625 9.74062 1.40625C5.14505 1.40625 1.40625 5.14505 1.40625 9.74063C1.40625 14.3362 5.14505 18.075 9.74062 18.075Z" fill="#19102D"></path>
                    </g>
                    <defs>
                      <clipPath id="clip0_11518_1140">
                        <rect width="24" height="24" fill="white"></rect>
                      </clipPath>
                    </defs>
                  </svg>