<svg xmlns="http://www.w3.org/2000/svg" width="40" height="40" viewBox="0 0 40 40" fill="#ffffff"><g clip-path="url(#clip0_12320_8)"><path d="M12.2246 26H12.2241C11.8099 26 11.4743 26.3358 11.4743 26.75C11.4743 27.1641 11.8104 27.5 12.2246 27.5C12.6388 27.5 12.9746 27.1641 12.9746 26.75C12.9746 26.3358 12.6388 26 12.2246 26Z" fill="#ffffff"></path><path d="M31.1253 26H31.1247C30.7105 26 30.375 26.3358 30.375 26.75C30.375 27.1641 30.7111 27.5 31.1253 27.5C31.5395 27.5 31.8753 27.1641 31.8753 26.75C31.8753 26.3358 31.5395 26 31.1253 26Z" fill="#ffffff"></path><path d="M37.1247 17H36.8285L34.4392 11.4533C34.3207 11.1782 34.0499 11 33.7504 11H28.1251V9.5C28.1251 9.08585 27.7893 8.75 27.3751 8.75H6.22482C5.83475 8.75 5.50978 9.04895 5.47745 9.43775L5.23003 12.4063H2.84961C2.43538 12.4063 2.09961 12.7422 2.09961 13.1563C2.09961 13.5705 2.43538 13.9063 2.84961 13.9063H5.105L4.9253 16.0626H3.9746C3.56038 16.0626 3.2246 16.3984 3.2246 16.8126C3.2246 17.2267 3.56038 17.5626 3.9746 17.5626H4.80035L4.62065 19.7187H1.72461C1.31038 19.7187 0.974609 20.0546 0.974609 20.4687C0.974609 20.8829 1.31038 21.2187 1.72461 21.2187H4.49563L3.97738 27.4377C3.95998 27.6467 4.03085 27.8534 4.17283 28.0079C4.31488 28.1622 4.51498 28.25 4.72475 28.25H7.9814C8.60052 29.9961 10.2687 31.25 12.2244 31.25C14.18 31.25 15.8482 29.9961 16.4673 28.25H26.8821C27.5012 29.9961 29.1695 31.25 31.1251 31.25C33.0807 31.25 34.7489 29.9961 35.368 28.25H38.6247C39.0389 28.25 39.3747 27.9142 39.3747 27.5V19.2501C39.3746 17.9673 38.4073 17 37.1247 17ZM31.5007 12.5H33.2569L35.1953 17H31.5007V12.5ZM6.90627 19.7187H6.12582L6.30552 17.5626H12.1563C12.5705 17.5626 12.9063 17.2267 12.9063 16.8126C12.9063 16.3984 12.5705 16.0626 12.1563 16.0626H6.43055L6.61025 13.9063H8.78127C9.19549 13.9063 9.53127 13.5705 9.53127 13.1563C9.53127 12.7422 9.19549 12.4063 8.78127 12.4063H6.7352L6.9149 10.25H26.6251V23.375H15.1977C14.4043 22.6751 13.363 22.25 12.2244 22.25C11.0857 22.25 10.0444 22.6751 9.25099 23.375H5.82118L6.00087 21.2187H6.90627C7.3205 21.2187 7.65627 20.8829 7.65627 20.4687C7.65627 20.0546 7.3205 19.7187 6.90627 19.7187ZM5.53993 26.75L5.69615 24.875H8.1338C7.871 25.4461 7.72437 26.0812 7.72437 26.75H5.53993ZM12.2244 29.75C10.5702 29.75 9.22437 28.4042 9.22437 26.75C9.22437 25.0958 10.5702 23.75 12.2244 23.75C13.8786 23.75 15.2244 25.0958 15.2244 26.75C15.2244 28.4042 13.8786 29.75 12.2244 29.75ZM16.7244 26.75C16.7244 26.0812 16.5777 25.4461 16.3149 24.875H27.0345C26.7717 25.4461 26.6251 26.0812 26.6251 26.75H16.7244ZM31.125 29.75C29.4708 29.75 28.125 28.4042 28.125 26.75C28.125 25.0958 29.4708 23.75 31.125 23.75C32.7792 23.75 34.125 25.0958 34.125 26.75C34.125 28.4042 32.7792 29.75 31.125 29.75ZM37.8746 26.75H35.625C35.625 26.0812 35.4784 25.4461 35.2156 24.875H37.8747V26.75H37.8746ZM37.8746 23.375H34.0984C33.3049 22.6751 32.2636 22.25 31.125 22.25C29.9864 22.25 28.9451 22.6751 28.1516 23.375H28.1251V12.5H30.0006V17.75C30.0006 18.1641 30.3364 18.5 30.7506 18.5H37.1246C37.5872 18.5 37.8746 18.7874 37.8746 19.25V23.375Z" fill="#ffffff"></path><path d="M15.6846 13.1562C15.6846 12.7421 15.3488 12.4062 14.9346 12.4062H12.1563C11.742 12.4062 11.4063 12.7421 11.4063 13.1562C11.4063 13.5704 11.742 13.9062 12.1563 13.9062H14.9346C15.3488 13.9062 15.6846 13.5704 15.6846 13.1562Z" fill="#ffffff"></path><path d="M11.4063 10.25C11.4063 9.83581 11.0705 9.5 10.6563 9.5H8.78127C8.36704 9.5 8.03127 9.83581 8.03127 10.25C8.03127 10.6642 8.36704 11 8.78127 11H10.6563C11.0705 11 11.4063 10.6642 11.4063 10.25Z" fill="#ffffff"></path></g><defs><clipPath id="clip0_12320_8"><rect width="40" height="40" fill="white"></rect></clipPath></defs></svg>