<svg xmlns="http://www.w3.org/2000/svg" width="40" height="40" viewBox="0 0 40 40" fill="none">
<g clip-path="url(#clip0_12320_220)">
<path d="M20.182 40C18.1926 40 16.3222 39.2252 14.9155 37.8185C13.9515 36.8545 12.6697 36.3236 11.3062 36.3236C7.19945 36.3236 3.85835 32.9824 3.85835 28.8756C3.85835 27.5123 3.32742 26.2305 2.36335 25.2665C-0.540552 22.3625 -0.540552 17.6375 2.36335 14.7335C3.32742 13.7695 3.85835 12.4877 3.85835 11.1244C3.85835 7.01758 7.19953 3.67641 11.3062 3.67641C12.6697 3.67641 13.9514 3.14547 14.9155 2.18148C16.3222 0.774766 18.1926 0 20.182 0C22.1713 0 24.0417 0.774766 25.4484 2.18148C26.4124 3.14547 27.6942 3.67641 29.0577 3.67641C33.1645 3.67641 36.5055 7.01758 36.5055 11.1244C36.5055 12.4877 37.0365 13.7695 38.0005 14.7335C40.9045 17.6375 40.9045 22.3625 38.0005 25.2665C37.0365 26.2305 36.5055 27.5123 36.5055 28.8756C36.5055 32.9824 33.1644 36.3236 29.0577 36.3236C27.6942 36.3236 26.4125 36.8545 25.4484 37.8185C24.0417 39.2252 22.1713 40 20.182 40ZM20.182 2.34617C18.8749 2.34617 17.5678 2.84367 16.5727 3.83867C15.1661 5.24539 13.2957 6.02008 11.3062 6.02008C8.49179 6.02008 6.2021 8.30984 6.2021 11.1243C6.2021 13.1137 5.42734 14.984 4.02062 16.3907C2.03054 18.3809 2.03054 21.6191 4.02062 23.6091C5.42734 25.0159 6.20203 26.8862 6.20203 28.8755C6.20203 31.69 8.49171 33.9798 11.3062 33.9798C13.2956 33.9798 15.166 34.7545 16.5727 36.1612C18.5628 38.1513 21.8009 38.1513 23.7911 36.1612C25.1977 34.7545 27.0681 33.9798 29.0576 33.9798C31.872 33.9798 34.1617 31.69 34.1617 28.8755C34.1617 26.8862 34.9365 25.0159 36.3432 23.6091C38.3333 21.619 38.3333 18.3808 36.3432 16.3907C34.9365 14.984 34.1618 13.1137 34.1618 11.1243C34.1618 8.30984 31.8721 6.02008 29.0577 6.02008C27.0682 6.02008 25.1978 5.24539 23.7912 3.83867C22.7961 2.84367 21.489 2.34617 20.182 2.34617Z" fill="#0e0e0e"></path>
<path d="M20.1819 31.7969C13.677 31.7969 8.38501 26.5048 8.38501 20C8.38501 13.4952 13.677 8.20312 20.1819 8.20312C26.6867 8.20312 31.9788 13.4952 31.9788 20C31.9788 26.5048 26.6867 31.7969 20.1819 31.7969ZM20.1819 10.5469C14.9694 10.5469 10.7288 14.7875 10.7288 20C10.7288 25.2125 14.9694 29.4531 20.1819 29.4531C25.3944 29.4531 29.635 25.2125 29.635 20C29.635 14.7875 25.3944 10.5469 20.1819 10.5469Z" fill="#0e0e0e"></path>
<path d="M18.5247 25.1788L13.9672 20.6213L15.6244 18.964L18.5247 21.8643L24.7394 15.6494L26.3967 17.3067L18.5247 25.1788Z" fill="#0e0e0e"></path>
</g>
<defs>
<clipPath id="clip0_12320_220">
<rect width="40" height="40" fill="#0e0e0e" transform="translate(0.181885)"></rect>
</clipPath>
</defs>
</svg>